<svg xmlns="http://www.w3.org/2000/svg" width="32" height="32" viewBox="0 0 32 32">
  <g id="그룹_17" data-name="그룹 17" transform="translate(-581 -427)">
    <rect id="사각형_358" data-name="사각형 358" width="32" height="32" transform="translate(581 427)" fill="none"/>
    <path id="folder-open" d="M24.526,73.768l-3.1,5.317a2.741,2.741,0,0,1-2.367,1.36H1.928A1.028,1.028,0,0,1,1.04,78.9l3.1-5.317a2.741,2.741,0,0,1,2.367-1.36H23.638A1.028,1.028,0,0,1,24.526,73.768ZM6.509,70.852H20.556V68.8A2.056,2.056,0,0,0,18.5,66.741H11.649L8.908,64H2.056A2.056,2.056,0,0,0,0,66.056V77.963l2.958-5.071A4.125,4.125,0,0,1,6.509,70.852Z" transform="translate(585 371)" fill="#bbc1c7"/>
  </g>
</svg>
