<svg xmlns="http://www.w3.org/2000/svg" xmlns:xlink="http://www.w3.org/1999/xlink" width="70" height="70" viewBox="0 0 70 70">
  <defs>
    <clipPath id="clip-path">
      <rect id="사각형_3" data-name="사각형 3" width="64.313" height="21.283" fill="none"/>
    </clipPath>
  </defs>
  <g id="그룹_26" data-name="그룹 26" transform="translate(-978 -570)">
    <rect id="사각형_359" data-name="사각형 359" width="70" height="70" transform="translate(978 570)" fill="none"/>
    <g id="그룹_25" data-name="그룹 25" transform="translate(85 10.551)">
      <g id="그룹_3" data-name="그룹 3" transform="translate(896 570.449)">
        <path id="패스_1" data-name="패스 1" d="M10.3,6.953,12.38,13.8H8.188ZM8.166,0,0,21.283H5.657l1.135-3.131h7l1.047,3.131h5.747L12.38,0Z" fill="#ff6900"/>
        <g id="그룹_2" data-name="그룹 2" transform="translate(0 0)">
          <g id="그룹_1" data-name="그룹 1" clip-path="url(#clip-path)">
            <path id="패스_2" data-name="패스 2" d="M36.093,21.283H29.681V0h7.243A7.529,7.529,0,0,1,41.8,1.378a4.852,4.852,0,0,1,1.673,3.976c0,.16,0,.277,0,.359a4.239,4.239,0,0,1-.357,1.854,5.365,5.365,0,0,1-2.27,2.185,6,6,0,0,1,2.818,1.9,4.993,4.993,0,0,1,.873,3.046,6.44,6.44,0,0,1-1.257,4.249q-1.984,2.34-7.189,2.337M34.717,4.405V8.226h.567a12.248,12.248,0,0,0,2.078-.116A1.647,1.647,0,0,0,38.754,6.3a1.49,1.49,0,0,0-.816-1.546,9.58,9.58,0,0,0-3.221-.351m0,7.908v4.564a4.5,4.5,0,0,0,.452.064,6.068,6.068,0,0,0,.777.039,3.882,3.882,0,0,0,2.724-.832,2.346,2.346,0,0,0,.717-1.827,1.537,1.537,0,0,0-.717-1.529,10.277,10.277,0,0,0-3.953-.48" transform="translate(-8.095 0)" fill="#ff6900"/>
            <path id="패스_3" data-name="패스 3" d="M58.915,16.611h6.079v4.671H53.711V0h5.2Z" transform="translate(-14.649 0)" fill="#ff6900"/>
            <path id="패스_4" data-name="패스 4" d="M77.751,16.611H84.1v4.671H72.55V0H84.1V4.671H77.751V8.177H84.1V12.9H77.751Z" transform="translate(-19.786 0)" fill="#ff6900"/>
          </g>
        </g>
      </g>
      <text id="KMS" transform="translate(893 618)" fill="#2d2926" font-size="33" font-family="NotoSans-Regular, Noto Sans" letter-spacing="0.021em"><tspan x="0" y="0">KMS</tspan></text>
    </g>
  </g>
</svg>
